<svg width="40" height="40" viewBox="0 0 40 40" fill="none" xmlns="http://www.w3.org/2000/svg">
<g clip-path="url(#clip0_717_3752)">
<path fill-rule="evenodd" clip-rule="evenodd" d="M14.9732 0.626652C14.211 0.926902 14.3265 1.50437 15.2042 1.73536C16.2899 2.01258 16.6826 4.78444 15.6201 4.78444C14.3035 4.78444 9.77618 6.86333 8.15926 8.20303C7.78958 8.52631 7.62802 8.31852 6.72728 7.57932C7.97451 6.26266 8.92149 5.4774 7.05055 5.4774C5.75709 5.4774 2.22301 8.34155 2.22301 9.40403C2.22301 9.79674 3.5627 9.88921 4.37116 9.54272C5.29511 9.15001 5.20265 9.21927 6.14981 10.2357L5.66462 10.6745C-0.687375 16.3797 -5.12239 36.568 17.0061 39.4091C27.3541 40.7488 35.3 34.9279 36.3625 25.2265L36.5242 23.8176L37.7715 23.6559C40.3123 23.3556 39.9658 19.8678 37.3787 19.4518C36.8475 19.3596 36.3855 19.1748 36.3395 19.0131C34.6993 12.8919 31.6504 8.6418 29.687 9.63501C29.0865 9.93526 29.1788 10.1432 30.1952 10.7207C34.1911 12.9843 35.531 24.2796 32.4819 30.1466C25.6449 43.2895 4.94846 39.6631 3.51647 25.0648C2.13054 10.9747 14.4652 1.75856 26.5225 7.85655C28.1164 8.665 30.0105 8.665 31.2117 7.83334L32.0892 7.23284L32.6437 7.83334C34.4916 9.81995 36.039 8.24926 34.2606 6.2166C32.0892 3.72196 28.7631 2.93653 30.0567 5.22321C31.0037 6.90939 29.687 7.34834 27.0999 6.23963C26.0837 5.80068 24.513 5.26944 23.5891 5.06166L21.9259 4.69197C21.9259 4.02221 21.9491 2.84407 21.7874 1.98955C21.6487 1.29659 21.6719 1.27338 22.4571 1.27338C23.3581 1.27338 23.7968 0.880842 23.2888 0.557392C22.8036 0.326402 15.6432 0.349432 14.9732 0.626652ZM20.2397 4.55345H18.161V3.19055C18.161 1.73536 18.2071 1.6893 19.7315 1.59684C20.309 1.5506 20.2397 1.64307 20.2397 4.55345ZM17.8606 7.92581C17.2601 8.52631 17.9068 11.3444 18.6922 11.5984C19.616 11.8987 20.2167 9.47329 19.5237 8.20303C19.2927 7.78711 18.184 7.60235 17.8606 7.92581ZM12.9638 11.0672C13.4027 13.123 15.9204 17.6734 16.9598 19.6598L16.5209 20.4683C15.9666 21.4615 15.9664 22.3624 16.4747 22.8244C18.5998 24.7415 22.4803 28.7606 24.0741 29.8231C25.8527 30.978 29.895 30.6085 27.0307 26.5662C25.7834 24.7876 23.2195 22.4779 21.8336 20.7685C21.2561 20.0295 20.8865 19.7983 20.4015 19.7983C19.6392 19.7983 19.2927 20.2373 19.824 20.5375C20.2628 20.7685 20.3322 21.9004 19.9625 22.5934C19.362 23.7021 17.0752 22.4779 17.6066 21.346C17.7681 21.0227 18.0685 20.7455 18.2994 20.7455C18.9231 20.7455 19.4313 19.8215 18.9463 19.5443C18.7383 19.4288 18.2533 18.6896 17.8606 17.9044C16.2669 14.7168 14.9502 12.3606 14.0493 11.0672C13.0793 9.51952 12.6173 9.42724 12.9638 11.0672ZM28.7169 21.2305C27.8854 21.8542 28.6246 22.2237 30.7035 22.1775C32.9671 22.1314 33.9834 21.7617 33.2904 21.2537C32.7129 20.861 29.2481 20.8379 28.7169 21.2305ZM4.78691 21.6462C3.88598 22.0159 4.60215 22.5009 6.2421 22.6857C7.92828 22.8704 8.73673 22.6857 8.64427 22.1544C8.50575 21.5077 5.9879 21.1843 4.78691 21.6462ZM18.2994 32.7797C18.0685 34.4429 18.415 35.3898 19.2005 35.3898C20.2167 35.3898 20.4247 34.8356 20.0087 33.2649C19.5237 31.417 18.5073 31.1398 18.2994 32.7797Z" fill="#27186A"/>
</g>
<defs>
<clipPath id="clip0_717_3752">
<rect width="40" height="40" fill="white"/>
</clipPath>
</defs>
</svg>
