<svg width="40" height="40" viewBox="0 0 40 40" fill="none" xmlns="http://www.w3.org/2000/svg">
<path d="M4.15531 28.2472C6.29612 27.3908 5.62099 26.551 3.39784 27.3085C2.17931 27.7202 2.08043 27.819 2.3604 28.2637C2.62384 28.6918 3.03553 28.6918 4.15531 28.2472Z" fill="#1A751A"/>
<path d="M3.56266 29.0211C2.65693 29.3505 2.49238 29.5481 2.90395 29.8609C3.33218 30.1903 4.20482 30.075 5.01179 29.5975C6.14799 28.9058 5.04475 28.4777 3.56266 29.0211Z" fill="#1A751A"/>
<path d="M36.1189 19.9311C35.2625 19.3054 35.0979 19.009 35.4436 18.7949C35.6577 18.6632 37.0575 15.7648 38.0291 13.4595C39.2642 10.5282 39.3629 10.6106 34.6698 10.5282L31.3268 10.4623L31.6398 9.85299C34.3404 4.55047 33.3523 2.12982 29.4166 4.41888C28.4286 4.99513 27.2264 5.6868 26.7488 5.93382C25.7279 6.49364 25.7608 6.6419 26.1725 3.85893C26.5512 1.27347 25.7937 0.483037 24.0647 1.6522C23.7518 1.86626 22.6484 2.72261 21.6274 3.54587C19.4538 5.30794 19.6349 5.24214 19.1738 4.35296C18.2351 2.59089 16.8353 1.96514 16.259 3.06838C15.5179 4.48455 14.5464 9.63893 14.9911 9.78719C15.5181 9.96829 16.7202 8.05808 17.3953 5.96665C17.5106 5.6373 18.1857 6.36193 18.3998 7.03705C18.6632 7.87698 19.075 7.69576 21.6604 5.6373C22.632 4.84687 23.4718 4.22112 23.4884 4.22112C23.5212 4.22112 23.4389 4.76466 23.3071 5.40682C22.4508 9.78719 23.4389 9.27674 27.2922 7.34999C30.7669 5.60446 30.4376 5.55508 29.7294 7.76168L28.8403 10.5612C28.2639 12.3725 28.8403 13.1465 30.3058 12.5372C30.9645 12.2573 35.773 12.3561 35.773 12.6361C35.773 12.7019 35.3119 13.6076 34.7685 14.6286C33.3359 17.2799 33.1053 18.0703 32.6607 18.6631C32.2326 19.2066 32.5619 20.3264 33.237 20.4581C33.9451 20.5899 34.8838 21.5779 36.6623 23.2741C31.3928 25.349 31.2773 25.0526 34.0439 28.8401C34.8179 29.9104 35.4438 30.7997 35.4108 30.8327C35.3778 30.8491 34.2745 30.7997 32.9406 30.701C29.5648 30.454 29.2684 30.635 30.0918 32.3147C30.6022 33.3521 30.5858 33.3522 29.3507 32.6276C26.7818 31.0961 24.8057 31.9359 27.2758 33.5169C33.237 37.3537 33.9945 37.4526 33.237 34.3567C32.6771 32.1171 32.6936 32.0842 33.3523 32.1665C34.2581 32.2818 36.794 32.3476 37.5021 32.5946C39.6757 33.3686 39.2642 31.7548 36.333 28.1155C35.4932 27.0615 34.8015 26.1394 34.8015 26.057C34.8015 25.8594 38.3749 24.2457 39.1159 24.1139C39.6923 24.0151 39.7417 23.587 39.33 22.9447C38.836 22.1707 37.7327 21.1003 36.1189 19.9311Z" fill="#1A751A"/>
<path d="M16.5557 31.6887C20.0797 31.8534 23.0932 33.1051 26.5678 31.0136C30.8658 28.4447 27.4735 16.4728 24.7399 12.6359C22.9285 10.0999 20.4091 8.73305 17.1979 10.4292C15.2547 11.4502 14.8595 11.7796 12.4388 14.4638C11.286 15.7318 9.96859 17.0327 9.50752 17.3291C9.04645 17.6421 8.48662 18.0208 8.25602 18.1689C2.73945 21.9729 1.50437 22.9446 1.05972 23.8667C-0.15894 26.3862 0.35163 29.6303 2.26184 31.4088C2.77229 31.8864 6.92206 34.6694 7.1197 34.6694C7.18562 34.6694 7.51497 35.0482 7.84433 35.5093C10.298 38.9346 13.0975 39.7744 15.7158 37.897C17.5931 36.5631 17.5108 35.4927 15.3864 33.4508L14.7277 32.8251L15.4029 31.6064L16.5557 31.6887ZM1.81719 26.2381C2.42652 24.1631 5.47292 21.1825 5.20949 22.9116C4.88014 25.0688 6.77393 28.9881 8.84881 30.4866L9.70516 31.1125L9.09583 31.5241C5.99992 33.6978 0.76333 29.8774 1.81719 26.2381ZM14.8266 35.9044C14.349 36.2668 13.9209 35.5751 13.9209 35.5751C13.2128 34.867 12.5539 35.147 13.048 35.8715C13.3939 36.3655 13.575 36.3491 13.0809 36.8761C12.3728 37.6171 12.06 37.4853 10.3639 35.8715C7.69607 33.3191 7.53152 32.9404 8.83239 32.4134C9.47469 32.1498 9.4911 32.0181 9.88625 32.7262C10.5943 33.9942 11.4507 33.7802 13.1633 33.5825C13.3939 33.5496 13.6079 33.6485 13.7562 33.8131L14.2172 34.373C14.5796 34.7187 15.1889 35.6245 14.8266 35.9044ZM13.1468 31.3923C13.7396 31.837 12.5705 32.7262 12.06 32.7262C11.7141 32.7262 10.8909 32.1334 10.8909 31.8864C10.8909 31.557 12.7352 31.0795 13.1468 31.3923ZM9.24409 28.8894C5.52243 25.53 5.45651 21.7095 9.07941 19.5029C11.286 18.1525 13.2128 16.5552 14.596 14.9249C15.1066 14.3321 15.7158 13.3934 16.0617 13.1134C16.6051 12.6523 16.6874 13.064 16.4074 13.5251C12.9822 18.9759 14.8595 25.4805 17.3132 28.1647C20.5244 31.6723 25.8433 30.3713 25.8433 26.4356C25.8433 25.5464 25.4646 25.3652 25.1846 26.1558C23.3731 31.4417 20.0961 28.0166 20.0797 28.0166C20.4914 26.6003 20.6889 25.4311 22.6815 24.476C26.222 22.7963 23.1755 17.428 19.388 18.6629C17.84 19.1735 16.111 18.3666 15.9628 18.2019C15.9628 18.1855 16.3086 13.9534 19.141 12.2407C19.9479 11.7466 19.3385 11.0879 18.4 11.5491C17.7742 11.8619 17.5107 11.4832 17.7577 11.2032C18.4329 10.4457 19.5691 10.2317 20.3102 10.5445C26.8148 13.2781 30.9975 31.1124 23.0932 30.9642C22.0393 30.9477 19.8162 30.6185 16.5557 30.2396C13.5092 29.9103 11.5166 30.9478 9.24409 28.8894ZM16.3251 20.672C16.3251 20.458 16.5227 20.3592 17.2802 20.2769C17.8072 20.211 18.3342 20.0957 18.4659 20.0299C19.0916 19.6676 19.2398 19.8487 19.3387 21.0508C19.454 22.4012 19.9315 23.5209 20.5244 23.8337C20.7548 23.949 20.9361 24.1137 20.9361 24.1796C20.9361 24.3113 18.4823 26.1228 18.2847 26.1228C17.9719 26.1392 16.3251 21.5448 16.3251 20.672ZM21.644 19.7663C21.891 20.145 22.418 22.0718 22.418 22.5987C22.418 23.0598 22.0558 22.6316 21.5782 21.6107C20.8866 20.178 20.9525 18.7125 21.644 19.7663Z" fill="#1A751A"/>
</svg>
