<svg width="40" height="40" viewBox="0 0 40 40" fill="none" xmlns="http://www.w3.org/2000/svg">
<path fill-rule="evenodd" clip-rule="evenodd" d="M7.65684 0.923914C5.96849 1.50419 6.02119 1.45149 5.73094 2.71786C5.22971 4.82839 5.96828 23.2958 6.68072 26.9893C6.86536 27.8864 7.97322 28.1501 10.4798 27.9128C11.7196 27.8072 13.2499 27.8072 13.8831 27.9128C15.5187 28.203 15.9672 28.0181 16.1519 26.8574C16.3892 25.2744 19.5288 11.7934 20.1093 6.59599C20.2136 5.58874 19.8196 4.594 19.0539 3.93132C18.2882 3.26864 13.4345 -1.08102 7.65684 0.923914ZM15.466 3.77302C15.9672 3.90497 16.0728 4.08961 15.9409 4.6174C15.8616 4.98669 12.5111 22.689 12.1945 24.5095C12.0362 25.512 12.0099 25.512 10.9283 25.4327L9.82007 25.3537C9.45078 17.3072 9.26614 11.5822 8.47487 5.25038C8.36906 4.45911 8.9232 3.74667 9.71468 3.61473C11.6142 3.32469 13.6721 3.27179 15.466 3.77302ZM25.0162 8.91752C24.304 9.2868 24.1986 9.57725 23.2488 13.8774C21.1646 23.3485 20.7688 26.1188 21.3493 26.8574C22.1671 27.8864 26.4938 29.2318 28.6043 29.1262C29.5277 29.0735 30.3719 28.5196 30.7939 27.7018C33.6696 21.9241 35.4108 18.5206 36.8618 14.6162C37.1784 13.772 36.9411 12.8222 36.2552 12.2417C33.3003 9.62974 27.1004 7.80945 25.0162 8.91752ZM30.5829 11.6085C33.3003 12.6376 33.7225 12.8749 33.4586 13.1915C33.2739 13.429 27.5489 26.4354 27.2587 26.7254C26.9421 27.0686 24.7789 26.4088 24.9635 26.0396C25.2801 25.4064 26.4409 20.4202 27.3906 15.3813C27.9182 12.5583 28.3404 10.949 28.5514 10.949C28.7626 10.9754 29.6595 11.2656 30.5829 11.6087V11.6085ZM6.9444 30.3662C-0.125977 32.8726 2.93453 39.6001 11.1657 39.6001C16.0728 39.6001 18.7902 37.8852 18.6319 35.8802C18.4473 33.6904 11.2711 28.8362 6.94461 30.3662H6.9444ZM22.9586 32.2658C17.7875 34.8248 20.4522 39.3362 27.1267 39.3362C31.2951 39.3362 34.5403 36.6715 33.0364 34.5083C31.7173 32.6614 25.1482 31.1841 22.9586 32.2658ZM13.6721 33.6377C15.8616 35.1941 15.4924 36.1439 12.3001 37.12C8.89685 38.149 6.17948 37.2783 6.17948 35.59C6.15313 34.7985 9.21344 30.4718 13.6721 33.6377ZM28.0238 33.9807C31.2424 35.8273 29.2109 38.5447 25.5175 37.3312C23.6708 36.7244 23.2486 35.4844 24.383 34.0334C25.2274 32.8726 26.0716 32.8726 28.0238 33.9807Z" fill="#BC2C2C"/>
</svg>
