<svg width="397" height="340" viewBox="0 0 397 340" fill="none" xmlns="http://www.w3.org/2000/svg">
<g clip-path="url(#clip0_640_3719)">
<path d="M205.319 285.556L216.939 282.133L213.549 293.786L216.939 305.406L205.319 302.015L193.666 305.406L197.09 293.786L193.666 282.133L205.319 285.556Z" fill="white" stroke="#EA5959" stroke-miterlimit="10"/>
</g>
<g clip-path="url(#clip1_640_3719)">
<path d="M82.4888 228.103L103.269 239.425L82.4888 250.839L71.1211 271.573L59.7533 250.839L38.9731 239.425L59.7533 228.103L71.1211 207.277L82.4888 228.103Z" fill="white" stroke="#EA5959" stroke-miterlimit="10"/>
</g>
<path d="M372.584 256.954C371.358 259.176 369.067 260.799 365.729 261.812C362.389 262.824 358.045 263.21 352.799 262.984C342.309 262.531 328.328 259.638 311.819 254.586C278.81 244.483 235.802 225.777 190.626 200.858C145.449 175.939 106.685 149.539 80.5306 127.009C67.4505 115.741 57.5453 105.458 51.5669 96.8266C48.5771 92.5101 46.5858 88.6301 45.6608 85.2646C44.7364 81.9015 44.8875 79.0976 46.1132 76.8754C47.3389 74.6533 49.63 73.0298 52.9677 72.0176C56.3078 71.0048 60.6519 70.6192 65.8978 70.8455C76.3876 71.2981 90.369 74.1909 106.878 79.2436C139.886 89.3466 182.895 108.053 228.071 132.971C273.247 157.89 312.012 184.29 338.166 206.82C351.246 218.089 361.151 228.371 367.13 237.003C370.12 241.319 372.111 245.199 373.036 248.565C373.96 251.928 373.809 254.732 372.584 256.954Z" stroke="#5E5C5C"/>
<path d="M359.227 281.166C358.001 283.388 355.71 285.011 352.373 286.024C349.032 287.036 344.688 287.422 339.442 287.196C328.953 286.743 314.971 283.85 298.463 278.798C265.454 268.695 222.445 249.989 177.269 225.07C132.093 200.151 93.3281 173.751 67.1742 151.221C54.094 139.953 44.1889 129.67 38.2104 121.038C35.2206 116.722 33.2294 112.842 32.3043 109.476C31.3799 106.113 31.531 103.31 32.7567 101.087C33.9825 98.8652 36.2735 97.2417 39.6112 96.2295C42.9514 95.2167 47.2955 94.8312 52.5414 95.0575C63.0311 95.51 77.0126 98.4028 93.5211 103.456C126.53 113.559 169.539 132.265 214.715 157.183C259.891 182.102 298.656 208.502 324.81 231.032C337.89 242.3 347.795 252.583 353.773 261.215C356.763 265.531 358.754 269.411 359.679 272.777C360.604 276.14 360.453 278.944 359.227 281.166Z" stroke="#5E5C5C"/>
<path d="M345.873 305.378C344.647 307.6 342.356 309.223 339.018 310.235C335.678 311.248 331.334 311.634 326.088 311.408C315.598 310.955 301.617 308.062 285.108 303.009C252.099 292.906 209.091 274.2 163.915 249.282C118.738 224.363 79.9736 197.963 53.8197 175.433C40.7396 164.164 30.8344 153.882 24.8559 145.25C21.8661 140.934 19.8749 137.054 18.9498 133.688C18.0254 130.325 18.1765 127.521 19.4022 125.299C20.628 123.077 22.919 121.454 26.2567 120.441C29.5969 119.429 33.941 119.043 39.1869 119.269C49.6766 119.722 63.6581 122.615 80.1666 127.667C113.176 137.77 156.184 156.476 201.36 181.395C246.536 206.314 285.301 232.714 311.455 255.244C324.535 266.512 334.44 276.795 340.419 285.426C343.409 289.743 345.4 293.623 346.325 296.988C347.249 300.352 347.098 303.155 345.873 305.378Z" stroke="#5E5C5C"/>
<ellipse cx="86.815" cy="68.9908" rx="10.233" ry="10.233" fill="#4EFFAC" fill-opacity="0.95"/>
<ellipse cx="277.941" cy="287.184" rx="6.60194" ry="6.60194" fill="#4EFFAC" fill-opacity="0.95"/>
<ellipse cx="53.8056" cy="42.5819" rx="15.5145" ry="15.5146" fill="#4EFFAC" fill-opacity="0.95"/>
<path d="M202.001 253.244C197.839 254.666 193.083 251.848 191.428 246.96L165.682 171.525L180.726 166.379L206.499 241.917C208.153 246.753 206.137 251.822 202.001 253.244Z" fill="#5E5C5C"/>
<path d="M199.752 254.175C198.537 254.175 197.296 253.891 196.107 253.296C193.703 252.106 191.79 249.882 190.86 247.141L165.113 171.706C165.01 171.422 165.165 171.086 165.475 170.982L180.52 165.836C180.675 165.784 180.83 165.784 180.959 165.862C181.088 165.939 181.192 166.043 181.243 166.198L207.016 241.736C208.748 246.857 206.576 252.261 202.156 253.787C201.406 254.046 200.579 254.175 199.752 254.175ZM166.405 171.887L191.971 246.779C192.798 249.236 194.504 251.253 196.624 252.287C198.33 253.115 200.166 253.27 201.82 252.701C205.646 251.382 207.507 246.624 205.956 242.098L180.364 167.103L166.405 171.887Z" fill="#5E5C5C"/>
<path d="M178.063 101.261L129.387 135.992L110.439 155.672L102.994 168.835L102.968 168.938C101.495 171.214 102.348 176.464 105.114 181.817C107.828 187.092 111.654 190.764 114.343 190.971L114.265 191.023L128.56 192.575L155.315 188.308L212.107 167.981L282.704 180.084L283.195 180.11C265.462 176.8 241.525 153.086 224.128 119.545C206.756 86.0296 201.224 52.9024 208.85 36.5586H208.824L178.451 100.434L178.063 101.261Z" fill="#4EFFAC" fill-opacity="0.95"/>
<path d="M294.928 178.651C312.375 169.586 309.002 128.493 287.393 86.8667C265.784 45.2402 234.122 18.8433 216.675 27.9077C199.228 36.9722 202.602 78.0653 224.211 119.692C245.819 161.318 277.481 187.715 294.928 178.651Z" fill="white"/>
<path d="M287.255 181.016C279.655 181.016 270.504 176.775 260.655 168.525C247.239 157.302 234.081 140.001 223.612 119.778C207.766 89.1595 201.226 57.7649 206.964 39.7919C208.877 33.7923 212.083 29.6029 216.451 27.3531C225.137 22.9051 237.364 26.6807 250.909 38.0076C264.326 49.231 277.483 66.5316 287.952 86.7545C303.824 117.373 310.364 148.768 304.6 166.741C302.687 172.74 299.482 176.93 295.113 179.18C292.761 180.421 290.124 181.016 287.255 181.016ZM224.361 26.6807C221.699 26.6807 219.217 27.2238 216.994 28.3875C212.884 30.4822 209.885 34.4647 208.076 40.1798C202.415 57.8942 208.929 88.9526 224.646 119.313C246.05 160.612 277.432 187.041 294.622 178.223C298.732 176.128 301.731 172.146 303.54 166.431C309.201 148.716 302.687 117.658 286.97 87.2975C268.332 51.3515 242.172 26.6807 224.361 26.6807Z" fill="#5E5C5C"/>
<path d="M287.254 181.016C279.654 181.016 270.503 176.775 260.654 168.526C247.238 157.302 234.08 140.002 223.611 119.779C207.765 89.1599 201.225 57.7653 206.963 39.7923C208.876 33.7927 212.082 29.6033 216.45 27.3534C222.267 24.3536 229.866 25.1036 238.423 29.4999C246.617 33.7151 255.484 41.1888 264.118 51.0933C264.325 51.3261 264.299 51.6881 264.066 51.895C263.833 52.1019 263.472 52.076 263.265 51.8433C245.738 31.7239 228.005 22.7244 216.993 28.3879C212.883 30.4825 209.884 34.4651 208.075 40.1802C202.414 57.8946 208.928 88.953 224.645 119.313C243.257 155.233 269.443 179.93 287.228 179.93C289.89 179.93 292.372 179.387 294.595 178.223C298.705 176.129 301.704 172.146 303.513 166.431C309.174 148.716 302.66 117.658 286.943 87.2979C282.264 78.2468 276.991 69.7387 271.33 62.0064C271.149 61.7478 271.201 61.3858 271.459 61.2048C271.718 61.0237 272.08 61.0754 272.261 61.3341C277.973 69.118 283.247 77.6778 287.977 86.7807C303.823 117.374 310.363 148.768 304.599 166.741C302.686 172.741 299.481 176.93 295.112 179.18C292.76 180.421 290.123 181.016 287.254 181.016Z" fill="#5E5C5C"/>
<path d="M255.34 125.661C259.382 123.561 258.605 114.049 253.604 104.416C248.603 94.7822 241.272 88.6751 237.231 90.775C233.189 92.8748 233.966 102.387 238.967 112.02C243.968 121.653 251.298 127.761 255.34 125.661Z" fill="#4EFFAC" fill-opacity="0.95"/>
<path d="M253.572 126.657C249.126 126.657 242.922 120.916 238.45 112.252C234.727 105.063 233.202 97.6672 234.572 93.4002C235.063 91.9003 235.865 90.8401 236.976 90.2711C241.371 88.0213 248.893 94.1502 254.115 104.21C257.837 111.399 259.362 118.795 257.992 123.062C257.501 124.562 256.7 125.622 255.588 126.191C254.968 126.502 254.296 126.657 253.572 126.657ZM238.992 90.9176C238.45 90.9176 237.933 91.0211 237.493 91.2538C236.64 91.6935 236.02 92.521 235.632 93.7364C234.365 97.7189 235.839 104.805 239.432 111.735C244.188 120.916 251.349 127.096 255.045 125.183C255.898 124.743 256.519 123.916 256.907 122.7C258.173 118.692 256.674 111.632 253.107 104.701C248.919 96.6587 242.922 90.9176 238.992 90.9176Z" fill="#4EFFAC" fill-opacity="0.95"/>
<path d="M283.325 171.37C276.656 171.37 268.642 167.646 260.008 160.431C248.273 150.604 236.743 135.45 227.592 117.761C213.711 90.9696 207.998 63.48 213.013 47.731C214.693 42.4554 217.511 38.7833 221.363 36.792C230.203 32.2664 243.206 37.4902 257.062 51.1187C257.294 51.3514 257.294 51.6876 257.062 51.9204C256.829 52.1531 256.493 52.1531 256.26 51.9204C242.766 38.654 230.229 33.4819 221.88 37.8006C218.312 39.6366 215.701 43.0761 214.099 48.0671C209.161 63.5317 214.848 90.6852 228.601 117.244C244.86 148.664 267.738 170.232 283.299 170.232C285.626 170.232 287.771 169.741 289.736 168.758C293.303 166.922 295.914 163.482 297.517 158.491C302.454 143.027 296.767 115.873 283.015 89.3145C278.853 81.2978 274.2 73.7724 269.185 66.9711C269.004 66.7125 269.056 66.3505 269.314 66.1695C269.573 65.9884 269.935 66.0402 270.116 66.2988C275.182 73.1776 279.861 80.7289 284.049 88.7973C297.93 115.589 303.643 143.078 298.628 158.827C296.948 164.103 294.13 167.775 290.279 169.766C288.159 170.827 285.833 171.37 283.325 171.37Z" fill="#5E5C5C"/>
<path d="M128.587 193.119C128.561 193.119 128.535 193.119 128.535 193.119L114.24 191.567C114.162 191.567 114.085 191.541 114.007 191.489C111.06 191.024 107.338 187.3 104.624 182.076C101.728 176.568 100.875 171.189 102.452 168.655L102.478 168.577L109.923 155.388C109.949 155.337 109.975 155.311 110 155.285L128.948 135.605C128.974 135.579 129 135.553 129.026 135.527L177.572 100.874L208.282 36.301C208.36 36.1717 208.463 36.0682 208.618 36.0165C208.773 35.9648 208.928 35.9648 209.058 36.0424C209.342 36.1717 209.471 36.5079 209.342 36.7923C201.561 53.4723 207.714 86.6254 224.619 119.261C241.551 151.949 265.152 176.154 283.325 179.49C283.609 179.542 283.816 179.801 283.79 180.111C283.764 180.395 283.506 180.602 283.221 180.628L282.73 180.602C282.704 180.602 282.679 180.602 282.653 180.602L212.186 168.525L155.522 188.8C155.496 188.8 155.445 188.826 155.419 188.826L128.664 193.093C128.638 193.119 128.612 193.119 128.587 193.119ZM114.653 190.481L128.587 191.981L155.212 187.714L211.979 167.413C212.082 167.388 212.16 167.362 212.263 167.388L275.699 178.249C258.561 170.724 238.527 148.509 223.663 119.804C208.903 91.3061 202.311 62.3683 205.93 44.085L178.581 101.495C178.529 101.573 178.477 101.65 178.4 101.702L129.776 136.433L110.905 156.009L103.46 169.198C103.46 169.224 103.434 169.249 103.434 169.249C102.09 171.344 102.995 176.516 105.606 181.559C108.165 186.498 111.862 190.222 114.395 190.403C114.498 190.403 114.576 190.429 114.653 190.481Z" fill="#5E5C5C"/>
<path d="M178.141 101.055L208.825 36.5332H208.851C201.225 52.877 206.783 86.0042 224.128 119.519C241.525 153.086 265.462 176.8 283.247 180.059L282.756 180.033L212.263 167.956L210.634 167.671C202.44 166.223 191.505 155.569 183.673 140.363C175.633 124.769 174.212 109.227 177.779 101.831L178.141 101.055Z" fill="white"/>
<path d="M283.247 180.628C283.247 180.628 283.221 180.628 283.247 180.628L282.73 180.602C282.704 180.602 282.679 180.602 282.653 180.602L212.16 168.525L210.531 168.24C201.871 166.715 190.885 155.621 183.156 140.647C174.393 123.631 173.953 108.477 177.262 101.598L177.65 100.822L208.334 36.3264C208.411 36.1971 208.515 36.0936 208.67 36.0419C208.825 35.9902 208.98 35.9902 209.109 36.0678C209.394 36.1971 209.523 36.5333 209.394 36.8177C201.613 53.4977 207.765 86.6508 224.671 119.287C241.603 151.974 265.204 176.18 283.377 179.516C283.661 179.567 283.868 179.826 283.842 180.136C283.764 180.395 283.532 180.628 283.247 180.628ZM205.878 44.0845L178.658 101.314L178.27 102.089C174.987 108.917 175.944 124.174 184.164 140.104C191.738 154.793 202.414 165.654 210.738 167.103L212.366 167.387L275.673 178.248C258.535 170.723 238.501 148.509 223.637 119.804C208.877 91.3057 202.285 62.3678 205.878 44.0845Z" fill="#5E5C5C"/>
<path d="M127.811 193.041C127.785 193.041 127.759 193.041 127.759 193.041L114.214 191.593C114.136 191.593 114.059 191.567 113.981 191.515C111.034 191.05 107.312 187.326 104.598 182.102C101.728 176.568 100.875 171.189 102.452 168.654L102.478 168.577L109.923 155.388C110.078 155.104 110.414 155.026 110.698 155.181C110.983 155.336 111.06 155.672 110.905 155.957L103.46 169.197C103.46 169.223 103.434 169.249 103.434 169.249C102.09 171.344 102.995 176.516 105.606 181.559C108.165 186.498 111.862 190.222 114.395 190.403C114.472 190.403 114.576 190.429 114.627 190.481L127.863 191.903C128.173 191.929 128.406 192.213 128.354 192.524C128.328 192.808 128.095 193.041 127.811 193.041Z" fill="#5E5C5C"/>
<path d="M128.715 192.473C124.321 192.162 118.168 185.93 113.696 177.318C108.966 168.19 107.854 158.751 110.749 155.389L103.02 168.836L102.968 168.94C101.495 171.215 102.348 176.465 105.114 181.818C107.828 187.094 111.654 190.766 114.343 190.973L114.265 191.024L128.715 192.473Z" fill="white"/>
<path d="M128.716 193.041C128.69 193.041 128.69 193.041 128.664 193.041C128.561 193.041 128.431 193.015 128.328 193.015L114.214 191.593C114.136 191.593 114.059 191.567 113.981 191.515C111.034 191.05 107.312 187.326 104.598 182.102C101.728 176.568 100.875 171.189 102.452 168.655L102.478 168.577L109.277 156.733C109.535 156.061 109.871 155.466 110.285 154.975C110.466 154.742 110.802 154.716 111.034 154.871C111.267 155.052 111.345 155.363 111.189 155.621L110.233 157.25C108.708 161.362 110.207 169.431 114.136 176.982C118.402 185.231 124.218 191.257 128.38 191.8L128.69 191.826C129 191.852 129.233 192.136 129.207 192.446C129.233 192.808 129 193.041 128.716 193.041ZM114.627 190.481L124.502 191.49C120.702 189.059 116.515 184.042 113.18 177.577C109.949 171.344 108.346 164.879 108.604 160.224L103.46 169.198C103.46 169.224 103.434 169.25 103.434 169.25C102.09 171.344 102.995 176.516 105.606 181.559C108.165 186.499 111.862 190.222 114.395 190.403C114.472 190.403 114.576 190.429 114.627 190.481Z" fill="#5E5C5C"/>
<path d="M154.359 188.412L155.496 188.18C149.344 189.473 139.624 180.163 132.774 166.948C125.768 153.449 124.45 139.976 129.413 135.993L128.767 136.64L110.801 155.311C107.854 158.621 108.94 168.112 113.696 177.292C118.272 186.137 124.76 192.446 129.181 192.421L154.359 188.412Z" fill="#5E5C5C"/>
<path d="M129.155 193.016C124.45 193.016 117.91 186.68 113.18 177.577C108.372 168.267 107.157 158.544 110.362 154.949L127.992 136.64C128.302 136.226 128.664 135.864 129.052 135.554C129.284 135.373 129.62 135.399 129.827 135.605C130.034 135.838 130.034 136.174 129.827 136.381L128.819 137.441C125.226 142.252 127.009 154.561 133.291 166.69C140.064 179.775 149.525 188.749 155.315 187.662L155.393 187.637C155.703 187.585 155.987 187.766 156.065 188.076C156.117 188.387 155.936 188.671 155.625 188.749C155.6 188.749 155.574 188.749 155.548 188.774L154.488 188.981H154.462L129.284 192.99C129.233 192.99 129.181 193.016 129.155 193.016ZM126.492 139.847L111.215 155.725C108.372 158.932 109.664 168.293 114.214 177.06C118.66 185.645 124.941 191.852 129.155 191.878L151.386 188.335C145.389 186.214 137.996 178.223 132.283 167.233C126.854 156.759 124.76 146.105 126.492 139.847Z" fill="#5E5C5C"/>
<path d="M237.234 90.7627C233.176 92.8315 233.771 102.426 238.941 111.994C247.6 128.002 254.502 126.114 255.304 125.829C255.329 125.829 255.329 125.855 255.304 125.855L240.44 137.829C236.071 131.7 231.909 124.873 228.084 117.502C224.439 110.442 221.363 103.408 218.933 96.5813L237.234 90.7627Z" fill="#5E5C5C"/>
<path d="M240.44 138.397C240.414 138.397 240.388 138.397 240.363 138.397C240.207 138.372 240.078 138.294 239.975 138.165C235.503 131.881 231.341 125.002 227.593 117.787C224 110.856 220.898 103.796 218.416 96.8139C218.364 96.6587 218.364 96.5036 218.442 96.3743C218.519 96.245 218.623 96.1415 218.778 96.0898L237.08 90.2712C237.364 90.1936 237.674 90.3229 237.778 90.6074C237.881 90.8919 237.778 91.2022 237.519 91.3315C236.64 91.7711 235.994 92.6504 235.606 93.9434C234.34 98.0035 235.891 105.193 239.484 111.787C247.937 127.407 254.451 125.622 255.149 125.364C255.407 125.26 255.718 125.39 255.847 125.622C255.976 125.855 255.924 126.191 255.718 126.372L240.802 138.268C240.699 138.346 240.569 138.397 240.44 138.397ZM219.683 96.9432C222.138 103.693 225.137 110.52 228.601 117.244C232.22 124.226 236.252 130.872 240.569 137.001L253.469 126.605C250.522 126.476 244.964 124.278 238.45 112.253C234.676 105.296 233.125 97.9517 234.495 93.5296C234.676 92.9607 234.882 92.4693 235.141 92.0038L219.683 96.9432Z" fill="#5E5C5C"/>
<path d="M313.715 53.8695C325.532 47.6612 330.103 33.0856 323.924 21.3139C317.745 9.54219 303.155 5.03213 291.338 11.2404C279.52 17.4487 274.95 32.0243 281.129 43.796C287.308 55.5677 301.897 60.0777 313.715 53.8695Z" fill="#4EFFAC" fill-opacity="0.95"/>
<path d="M291.52 27.2233C292.658 25.6717 294.338 24.7149 296.251 24.508C297.698 24.3528 299.043 24.6631 300.309 25.439C300.956 25.8269 301.524 26.3182 302.067 26.913C302.455 26.2148 302.92 25.5941 303.463 25.0769C304.523 24.0425 305.789 23.4477 307.211 23.2925C309.124 23.0857 310.985 23.6546 312.433 24.9217C313.855 26.163 314.759 27.9733 314.992 30.0163C315.225 32.1109 314.656 34.1281 313.208 36.3521C311.916 38.3433 309.951 40.4121 307.677 42.843C306.901 43.6706 306.022 44.6015 305.117 45.5842C304.885 45.8428 304.549 46.0239 304.187 46.0497C303.825 46.1014 303.489 45.998 303.179 45.7911C302.067 45.0153 301.007 44.2912 300.077 43.6706C297.336 41.8086 294.958 40.2053 293.252 38.5502C291.339 36.7141 290.357 34.8522 290.124 32.7575C289.918 30.7145 290.409 28.7491 291.52 27.2233Z" fill="white"/>
<path d="M380.757 55.1866C389.408 46.5318 389.408 32.4995 380.757 23.8446C372.105 15.1897 358.079 15.1897 349.427 23.8446C340.776 32.4995 340.776 46.5318 349.427 55.1867C358.079 63.8415 372.105 63.8415 380.757 55.1866Z" fill="#4EFFAC" fill-opacity="0.95"/>
<path d="M365.088 62.238C352.577 62.238 342.366 52.049 342.366 39.5067C342.366 26.9903 352.551 16.7754 365.088 16.7754C377.626 16.7754 387.811 26.9644 387.811 39.5067C387.811 52.0232 377.626 62.238 365.088 62.238ZM365.088 17.9132C353.197 17.9132 343.504 27.5851 343.504 39.5067C343.504 51.4025 353.172 61.1002 365.088 61.1002C376.979 61.1002 386.673 51.4284 386.673 39.5067C386.673 27.6109 377.005 17.9132 365.088 17.9132Z" fill="#4EFFAC" fill-opacity="0.95"/>
<path d="M371.085 41.7051C369.844 41.7051 368.759 42.2999 368.035 43.2309L360.564 40.3087C360.564 40.2052 360.59 40.1277 360.59 40.0242C360.59 39.8432 360.564 39.6622 360.538 39.4811L368.19 35.9383C368.888 36.7399 369.922 37.2572 371.085 37.283C373.205 37.283 374.963 35.5504 374.963 33.4039C374.963 31.2575 373.231 29.499 371.085 29.499C368.965 29.499 367.208 31.2317 367.208 33.3781C367.208 33.5591 367.233 33.7401 367.259 33.9212L359.608 37.464C358.91 36.6624 357.876 36.1452 356.712 36.1193C354.593 36.1193 352.835 37.8519 352.835 39.9984C352.835 42.1448 354.567 43.9033 356.712 43.9033C357.953 43.9033 359.039 43.3085 359.763 42.3775L367.233 45.2997C367.233 45.4032 367.208 45.4808 367.208 45.5842C367.208 47.7306 368.94 49.4891 371.085 49.4891C373.205 49.4891 374.963 47.7565 374.963 45.6101C374.937 43.4637 373.205 41.731 371.085 41.7051Z" fill="#5E5C5C"/>
<path d="M371.378 125.432C381.523 118.387 384.072 104.497 377.071 94.4067C370.07 84.3164 356.171 81.8472 346.026 88.8915C335.881 95.9359 333.333 109.826 340.333 119.917C347.334 130.007 361.234 132.476 371.378 125.432Z" fill="#4EFFAC" fill-opacity="0.95"/>
<path d="M353.121 117.761L349.864 100.098C349.708 99.1929 350.536 98.4429 351.415 98.6756L370.673 104.132C371.655 104.417 371.888 105.684 371.086 106.304L355.059 118.511C354.361 119.08 353.302 118.692 353.121 117.761Z" fill="white"/>
<path d="M358.484 197.781C371.012 191.68 376.254 176.636 370.193 164.18C364.131 151.724 349.062 146.573 336.534 152.674C324.006 158.776 318.763 173.819 324.825 186.275C330.886 198.731 345.956 203.883 358.484 197.781Z" fill="#4EFFAC" fill-opacity="0.95"/>
<path d="M347.381 200.927C344.693 200.927 341.953 200.514 339.29 199.609C332.776 197.436 327.503 192.885 324.452 186.73C321.402 180.601 320.937 173.645 323.134 167.128C327.684 153.706 342.315 146.388 355.783 150.862C362.297 153.034 367.57 157.585 370.621 163.74C373.671 169.869 374.136 176.826 371.939 183.342C368.268 194.1 358.161 200.927 347.381 200.927ZM347.64 150.706C337.326 150.706 327.658 157.223 324.168 167.516C322.074 173.748 322.514 180.394 325.435 186.239C328.356 192.109 333.396 196.479 339.626 198.548C352.5 202.815 366.485 195.833 370.827 183.006C372.921 176.774 372.482 170.128 369.561 164.283C366.64 158.413 361.599 154.042 355.369 151.974C352.81 151.094 350.199 150.706 347.64 150.706Z" fill="#5E5C5C"/>
<path d="M360.359 171.162C360.1 177.447 349.476 192.135 346.943 195.575C346.684 195.937 346.141 195.911 345.909 195.523C344.306 192.937 339.007 184.248 336.241 177.214C335.129 174.421 334.431 171.887 334.509 170.102C334.793 162.965 340.816 157.405 347.951 157.689C355.085 158.025 360.643 164.025 360.359 171.162Z" fill="#5E5C5C"/>
<path d="M351.615 174.837C353.927 172.524 353.927 168.775 351.615 166.462C349.303 164.149 345.555 164.149 343.243 166.462C340.932 168.775 340.932 172.524 343.243 174.837C345.555 177.15 349.303 177.15 351.615 174.837Z" fill="#4EFFAC" fill-opacity="0.95"/>
<defs>
<clipPath id="clip0_640_3719">
<rect width="23.767" height="23.767" fill="white" transform="translate(193.437 281.902)"/>
</clipPath>
<clipPath id="clip1_640_3719">
<rect width="46.4287" height="46.4287" fill="white" transform="translate(71.1211 206.641) rotate(45)"/>
</clipPath>
</defs>
</svg>
