<svg width="30" height="30" viewBox="0 0 30 30" fill="none" xmlns="http://www.w3.org/2000/svg">
<path d="M15.5 7.46696C17.3347 7.22251 18.75 5.65154 18.75 3.75C18.75 1.67893 17.0711 0 15 0C12.9289 0 11.25 1.67893 11.25 3.75C11.25 5.65154 12.6653 7.22251 14.5 7.46696V13.7929L10.0269 9.31978C11.1514 7.84962 11.0413 5.73799 9.6967 4.39339C8.23223 2.92893 5.85786 2.92893 4.3934 4.39339C2.92893 5.85786 2.92893 8.23223 4.3934 9.69669C5.73799 11.0413 7.84961 11.1513 9.31977 10.0269L13.7929 14.5H7.46696C7.22251 12.6653 5.65154 11.25 3.75 11.25C1.67893 11.25 0 12.9289 0 15C-2.54447e-07 17.0711 1.67893 18.75 3.75 18.75C5.65154 18.75 7.22251 17.3347 7.46696 15.5H13.7929L9.31978 19.9731C7.84961 18.8486 5.738 18.9587 4.39342 20.3033C2.92895 21.7678 2.92895 24.1421 4.39342 25.6066C5.85788 27.0711 8.23225 27.0711 9.69672 25.6066C11.0413 24.262 11.1514 22.1504 10.0269 20.6802L14.5 16.2071V22.533C12.6653 22.7775 11.25 24.3485 11.25 26.25C11.25 28.3211 12.9289 30 15 30C17.0711 30 18.75 28.3211 18.75 26.25C18.75 24.3485 17.3347 22.7775 15.5 22.533V16.2071L19.9731 20.6802C18.8487 22.1504 18.9587 24.262 20.3033 25.6066C21.7678 27.0711 24.1421 27.0711 25.6066 25.6066C27.0711 24.1421 27.0711 21.7678 25.6066 20.3033C24.262 18.9587 22.1504 18.8487 20.6802 19.9731L16.2071 15.5H22.533C22.7775 17.3347 24.3485 18.75 26.25 18.75C28.3211 18.75 30 17.0711 30 15C30 12.9289 28.3211 11.25 26.25 11.25C24.3485 11.25 22.7775 12.6653 22.533 14.5H16.2071L20.6802 10.0269C22.1504 11.1514 24.262 11.0413 25.6066 9.6967C27.071 8.23223 27.071 5.85786 25.6066 4.3934C24.1421 2.92893 21.7677 2.92893 20.3033 4.3934C18.9587 5.73799 18.8486 7.84962 19.9731 9.31978L15.5 13.7929V7.46696Z" fill="#F9FF46"/>
</svg>
