<svg width="46" height="46" viewBox="0 0 46 46" fill="none" xmlns="http://www.w3.org/2000/svg">
<path d="M8.42969 21.4228C8.93919 24.9236 10.6921 28.124 13.3677 30.4383C16.0433 32.7527 19.4627 34.0264 23.0004 34.0264M23.0004 34.0264C26.5381 34.0264 29.9575 32.7527 32.6331 30.4383C35.3087 28.124 37.0616 24.9236 37.5711 21.4228M23.0004 34.0264V41.4M23.0025 4.59998C21.3294 4.59998 19.7247 5.26463 18.5417 6.44771C17.3586 7.6308 16.6939 9.23541 16.6939 10.9085V19.32C16.6939 20.9931 17.3586 22.5977 18.5417 23.7808C19.7247 24.9639 21.3294 25.6285 23.0025 25.6285C24.6756 25.6285 26.2802 24.9639 27.4633 23.7808C28.6464 22.5977 29.3111 20.9931 29.3111 19.32V10.9085C29.3111 9.23541 28.6464 7.6308 27.4633 6.44771C26.2802 5.26463 24.6756 4.59998 23.0025 4.59998Z" stroke="#49A47A" stroke-width="3" stroke-linecap="round" stroke-linejoin="round"/>
</svg>
