<svg width="44" height="44" viewBox="0 0 44 44" fill="none" xmlns="http://www.w3.org/2000/svg">
<path d="M16.7204 16.72V15.22C15.892 15.22 15.2204 15.8916 15.2204 16.72H16.7204ZM16.8957 16.72H18.3957C18.3957 15.8916 17.7241 15.22 16.8957 15.22V16.72ZM27.2804 16.72V15.22C26.452 15.22 25.7804 15.8916 25.7804 16.72H27.2804ZM27.4362 16.72H28.9362C28.9362 15.8916 28.2647 15.22 27.4362 15.22V16.72ZM16.8957 16.861V18.361C17.7241 18.361 18.3957 17.6894 18.3957 16.861H16.8957ZM16.7204 16.861H15.2204C15.2204 17.6894 15.892 18.361 16.7204 18.361V16.861ZM27.4362 16.861V18.361C28.2647 18.361 28.9362 17.6894 28.9362 16.861H27.4362ZM27.2804 16.861H25.7804C25.7804 17.6894 26.452 18.361 27.2804 18.361V16.861ZM17.1744 26.5623C16.7384 25.8579 15.8139 25.6404 15.1095 26.0764C14.4051 26.5124 14.1875 27.4369 14.6235 28.1413L17.1744 26.5623ZM29.3772 28.1413C29.8133 27.4369 29.5957 26.5124 28.8913 26.0764C28.1869 25.6404 27.2624 25.8579 26.8264 26.5623L29.3772 28.1413ZM38.1004 22C38.1004 30.8918 30.8922 38.1 22.0004 38.1V41.1C32.549 41.1 41.1004 32.5487 41.1004 22H38.1004ZM22.0004 38.1C13.1086 38.1 5.90039 30.8918 5.90039 22H2.90039C2.90039 32.5487 11.4518 41.1 22.0004 41.1V38.1ZM5.90039 22C5.90039 13.1082 13.1086 5.90002 22.0004 5.90002V2.90002C11.4518 2.90002 2.90039 11.4514 2.90039 22H5.90039ZM22.0004 5.90002C30.8922 5.90002 38.1004 13.1082 38.1004 22H41.1004C41.1004 11.4514 32.549 2.90002 22.0004 2.90002V5.90002ZM16.7204 18.22H16.8957V15.22H16.7204V18.22ZM27.2804 18.22H27.4362V15.22H27.2804V18.22ZM15.3957 16.72V16.861H18.3957V16.72H15.3957ZM16.8957 15.361H16.7204V18.361H16.8957V15.361ZM18.2204 16.861V16.72H15.2204V16.861H18.2204ZM25.9362 16.72V16.861H28.9362V16.72H25.9362ZM27.4362 15.361H27.2804V18.361H27.4362V15.361ZM28.7804 16.861V16.72H25.7804V16.861H28.7804ZM22.0004 29.2999C19.9893 29.2999 18.2029 28.2239 17.1744 26.5623L14.6235 28.1413C16.1615 30.6258 18.8812 32.2999 22.0004 32.2999V29.2999ZM26.8264 26.5623C25.7979 28.2239 24.0114 29.2999 22.0004 29.2999V32.2999C25.1196 32.2999 27.8393 30.6258 29.3772 28.1413L26.8264 26.5623Z" fill="#49A47A"/>
</svg>
