<svg width="20" height="20" viewBox="0 0 20 20" fill="none" xmlns="http://www.w3.org/2000/svg">
<path d="M17.5 17.5L12.75 15.9167C12.75 15.9167 11.7373 16.6667 9.58333 16.6667C5.67132 16.6667 2.5 13.4954 2.5 9.58333C2.5 5.67132 5.67132 2.5 9.58333 2.5C13.4954 2.5 16.6667 5.67132 16.6667 9.58333C16.6667 11.6667 15.9167 12.75 15.9167 12.75L17.5 17.5Z" fill="white" fill-opacity="0.15"/>
<path d="M17.5 17.5L12.75 15.9167C12.75 15.9167 11.7373 16.6667 9.58333 16.6667C5.67132 16.6667 2.5 13.4954 2.5 9.58333C2.5 5.67132 5.67132 2.5 9.58333 2.5C13.4954 2.5 16.6667 5.67132 16.6667 9.58333C16.6667 11.6667 15.9167 12.75 15.9167 12.75L17.5 17.5Z" stroke="#5A5A5A" stroke-width="2" stroke-linecap="round" stroke-linejoin="round"/>
</svg>
