<svg width="22" height="20" viewBox="0 0 22 20" fill="none" xmlns="http://www.w3.org/2000/svg">
<path d="M13.5 6.66675C13.5 8.04746 12.3807 9.16675 11 9.16675C9.61929 9.16675 8.5 8.04746 8.5 6.66675C8.5 5.28604 9.61929 4.16675 11 4.16675C12.3807 4.16675 13.5 5.28604 13.5 6.66675Z" fill="white" fill-opacity="0.15"/>
<path d="M6 15.0001C6 13.1591 7.49238 11.6667 9.33333 11.6667H12.6667C14.5076 11.6667 16 13.1591 16 15.0001V15.8334H6V15.0001Z" fill="white" fill-opacity="0.15"/>
<path d="M3.49992 15.8334H1.83325V15.0001C1.83325 13.4469 2.89556 12.1418 4.33325 11.7718M5.99992 9.0245C5.02892 8.6813 4.33325 7.75527 4.33325 6.66676C4.33325 5.57824 5.02892 4.65221 5.99992 4.30901M18.4999 15.8334H20.1666V15.0001C20.1666 13.4469 19.1043 12.1418 17.6666 11.7718M15.9999 4.30901C16.9709 4.65221 17.6666 5.57824 17.6666 6.66676C17.6666 7.75527 16.9709 8.6813 15.9999 9.0245M9.33325 11.6667H12.6666C14.5075 11.6667 15.9999 13.1591 15.9999 15.0001V15.8334H5.99992V15.0001C5.99992 13.1591 7.4923 11.6667 9.33325 11.6667ZM13.4999 6.66675C13.4999 8.04746 12.3806 9.16675 10.9999 9.16675C9.61921 9.16675 8.49992 8.04746 8.49992 6.66675C8.49992 5.28604 9.61921 4.16675 10.9999 4.16675C12.3806 4.16675 13.4999 5.28604 13.4999 6.66675Z" stroke="#5A5A5A" stroke-width="2" stroke-linecap="round" stroke-linejoin="round"/>
</svg>
