<svg width="36" height="36" viewBox="0 0 36 36" fill="none" xmlns="http://www.w3.org/2000/svg">
<path d="M6.15836 27.1611L5.36454 26.5529H5.36454L6.15836 27.1611ZM7.90283 22.2566L6.90283 22.2443V22.2566H7.90283ZM7.93944 19.2913L8.93944 19.3037V19.2913H7.93944ZM29.851 27.1849L30.6569 26.5928L30.6569 26.5928L29.851 27.1849ZM28.1721 22.2566L27.1721 22.2436V22.2566H28.1721ZM28.2088 19.4383L29.2088 19.4512V19.4383H28.2088ZM23.8 28.5592C23.8 28.0069 23.3523 27.5592 22.8 27.5592C22.2477 27.5592 21.8 28.0069 21.8 28.5592H23.8ZM14.2 28.5592C14.2 28.0069 13.7523 27.5592 13.2 27.5592C12.6477 27.5592 12.2 28.0069 12.2 28.5592H14.2ZM5.07353 9.73468C4.86567 10.2464 5.11196 10.8297 5.62364 11.0375C6.13532 11.2454 6.71861 10.9991 6.92647 10.4874L5.07353 9.73468ZM10.6938 6.25128C11.1814 5.99204 11.3666 5.38656 11.1074 4.8989C10.8481 4.41123 10.2426 4.22606 9.75497 4.48531L10.6938 6.25128ZM26.2246 4.50312C25.7397 4.23875 25.1323 4.41752 24.8679 4.90242C24.6035 5.38732 24.7823 5.99472 25.2672 6.25909L26.2246 4.50312ZM29.0695 10.4645C29.2718 10.9784 29.8525 11.2309 30.3663 11.0286C30.8802 10.8263 31.1328 10.2457 30.9305 9.7318L29.0695 10.4645ZM6.95218 27.7693C7.92922 26.4939 8.90283 24.5861 8.90283 22.2566H6.90283C6.90283 24.02 6.16286 25.5109 5.36454 26.5529L6.95218 27.7693ZM8.90275 22.269L8.93937 19.3037L6.93952 19.279L6.9029 22.2443L8.90275 22.269ZM30.6569 26.5928C29.8922 25.552 29.1721 24.0462 29.1721 22.2566H27.1721C27.1721 24.5879 28.1066 26.4995 29.0451 27.777L30.6569 26.5928ZM29.1721 22.2696L29.2087 19.4512L27.2088 19.4253L27.1722 22.2436L29.1721 22.2696ZM29.2088 19.4383C29.2088 13.2875 24.1824 8.31579 18 8.31579V10.3158C23.0939 10.3158 27.2088 14.408 27.2088 19.4383H29.2088ZM29.24 29.5592C30.0702 29.5592 30.6107 28.9803 30.8365 28.4542C31.061 27.9314 31.0995 27.1953 30.6569 26.5928L29.0451 27.777C29.0072 27.7254 29.0009 27.6814 29.0001 27.6682C28.9995 27.6576 29.0012 27.6595 28.9987 27.6653C28.9959 27.6718 29.0014 27.653 29.0365 27.6257C29.0781 27.5933 29.1511 27.5592 29.24 27.5592V29.5592ZM8.93944 19.2913C8.93944 14.3423 12.988 10.3158 18 10.3158V8.31579C11.8994 8.31579 6.93944 13.2217 6.93944 19.2913H8.93944ZM6.76145 27.5592C6.85283 27.5592 6.92696 27.5949 6.96802 27.6275C7.00227 27.6546 7.00627 27.6721 7.00247 27.663C6.999 27.6547 7.00049 27.6506 6.99984 27.66C6.999 27.6719 6.99236 27.7168 6.95218 27.7693L5.36454 26.5529C4.90268 27.1558 4.93631 27.9039 5.15612 28.4318C5.37703 28.9623 5.91769 29.5592 6.76145 29.5592V27.5592ZM29.24 27.5592H6.76145V29.5592H29.24V27.5592ZM21.8 28.5592C21.8 30.3877 20.1733 32 18 32V34C21.1286 34 23.8 31.6359 23.8 28.5592H21.8ZM18 32C15.8267 32 14.2 30.3877 14.2 28.5592H12.2C12.2 31.6359 14.8714 34 18 34V32ZM20.2 6.15789C20.2 7.33722 19.2276 8.31579 18 8.31579V10.3158C20.3071 10.3158 22.2 8.46668 22.2 6.15789H20.2ZM18 8.31579C16.7724 8.31579 15.8 7.33722 15.8 6.15789H13.8C13.8 8.46668 15.6929 10.3158 18 10.3158V8.31579ZM15.8 6.15789C15.8 4.97857 16.7724 4 18 4V2C15.6929 2 13.8 3.84911 13.8 6.15789H15.8ZM18 4C19.2276 4 20.2 4.97857 20.2 6.15789H22.2C22.2 3.84911 20.3071 2 18 2V4ZM6.92647 10.4874C7.66476 8.66999 8.98285 7.1608 10.6938 6.25128L9.75497 4.48531C7.60639 5.62749 5.97799 7.50819 5.07353 9.73468L6.92647 10.4874ZM25.2672 6.25909C27.0163 7.21268 28.3709 8.69005 29.0695 10.4645L30.9305 9.7318C30.0461 7.4855 28.3509 5.66239 26.2246 4.50312L25.2672 6.25909Z" fill="white"/>
</svg>
